<?xml version="1.0" encoding="UTF-8" standalone="no"?>
<!-- Created with Inkscape (http://www.inkscape.org/) -->

<svg
   xmlns:dc="http://purl.org/dc/elements/1.1/"
   xmlns:cc="http://creativecommons.org/ns#"
   xmlns:rdf="http://www.w3.org/1999/02/22-rdf-syntax-ns#"
   xmlns:svg="http://www.w3.org/2000/svg"
   xmlns="http://www.w3.org/2000/svg"
   xmlns:sodipodi="http://sodipodi.sourceforge.net/DTD/sodipodi-0.dtd"
   xmlns:inkscape="http://www.inkscape.org/namespaces/inkscape"
   width="150mm"
   height="30mm"
   viewBox="0 0 531.49607 106.29921"
   id="svg2"
   version="1.1"
   inkscape:version="0.91 r13725"
   inkscape:export-filename="C:\Users\Brigi\Desktop\text4136.png"
   inkscape:export-xdpi="135"
   inkscape:export-ydpi="135"
   sodipodi:docname="eleno.svg">
  <defs
     id="defs4" />
  <sodipodi:namedview
     id="base"
     pagecolor="#ffffff"
     bordercolor="#666666"
     borderopacity="1.0"
     inkscape:pageopacity="0.0"
     inkscape:pageshadow="2"
     inkscape:zoom="0.7"
     inkscape:cx="474.5299"
     inkscape:cy="-35.156871"
     inkscape:document-units="px"
     inkscape:current-layer="layer1"
     showgrid="false"
     inkscape:window-width="1536"
     inkscape:window-height="809"
     inkscape:window-x="-8"
     inkscape:window-y="-8"
     inkscape:window-maximized="1"
     showguides="false" />
  <metadata
     id="metadata7">
    <rdf:RDF>
      <cc:Work
         rdf:about="">
        <dc:format>image/svg+xml</dc:format>
        <dc:type
           rdf:resource="http://purl.org/dc/dcmitype/StillImage" />
        <dc:title></dc:title>
      </cc:Work>
    </rdf:RDF>
  </metadata>
  <g
     inkscape:label="1. réteg"
     inkscape:groupmode="layer"
     id="layer1"
     transform="translate(0,-946.06303)">
    <path
       style="font-style:normal;font-variant:normal;font-weight:normal;font-stretch:normal;font-size:17.5px;line-height:125%;font-family:'Bookshelf Symbol 7';-inkscape-font-specification:'Bookshelf Symbol 7, Normal';text-align:start;letter-spacing:0px;word-spacing:0px;writing-mode:lr-tb;text-anchor:start;fill:#000000;fill-opacity:1;stroke:none;stroke-width:1px;stroke-linecap:butt;stroke-linejoin:miter;stroke-opacity:1"
       d="m 335.46763,971.80875 c -7.0638,0 -12.82877,2.35742 -17.29492,7.07421 -4.46614,4.69401 -6.69922,11.20053 -6.69922,19.51758 0,4.39776 0.95703,8.56766 2.8711,12.50976 1.91406,3.9421 4.72916,7.0514 8.44336,9.3301 3.71419,2.2786 7.92968,3.418 12.64648,3.418 4.35221,0 8.4082,-1.0254 12.16797,-3.0762 3.75977,-2.0736 6.66406,-5.1146 8.71484,-9.125 2.05078,-4.0104 3.07618,-8.5573 3.07618,-13.63869 0,-5.01302 -0.97982,-9.48958 -2.93946,-13.43164 -1.93685,-3.96484 -4.76237,-7.05338 -8.47656,-9.26367 -3.71419,-2.21029 -7.88411,-3.31445 -12.50977,-3.31445 z m -319.505859,0.88867 0,5.91015 8.91992,0 0,0.002 27.310541,0 0,-5.91211 -36.230461,0 z m 74.996091,0 0,50.10738 31.308598,0 0,-5.914 -24.677738,0 0,-44.19338 -6.63086,0 z m 68.025398,0 0,5.9082 8.32031,0 0,0.004 27.91016,0 0,-5.91211 -36.23047,0 z m 75.32031,0 18.72071,29.33198 -0.0703,-0.031 13.90821,20.8067 6.80273,0 0,-50.10743 -6.35742,0 0,39.33983 -26.31836,-39.33983 -6.68555,0 z m 169.94336,0 0,5.53711 14.90039,0 c 3.71419,0 6.42578,0.76237 8.13477,2.28906 1.73177,1.52669 2.59765,3.47591 2.59765,5.8457 0,1.61784 -0.44336,3.12175 -1.33203,4.51172 -0.88867,1.36719 -2.1875,2.36979 -3.89648,3.00781 -1.70899,0.61524 -4.07878,0.92188 -7.10938,0.92188 l -13.29492,0 0,5.7422 6.73242,0 c 1.70899,0 2.93946,0.081 3.69141,0.2402 1.02539,0.2507 2.02799,0.694 3.00781,1.332 1.00261,0.6381 2.12956,1.7546 3.38281,3.3497 1.25326,1.595 2.84831,3.8964 4.78516,6.9043 l 6.63086,10.4257 8.33984,0 -8.71484,-13.6386 c -1.73177,-2.6661 -3.56706,-4.8867 -5.50391,-6.6641 -0.91145,-0.8203 -2.24349,-1.653 -3.99804,-2.4961 4.80794,-0.6608 8.36263,-2.21028 10.66406,-4.64843 2.30143,-2.43815 3.45117,-5.43359 3.45117,-8.98828 0,-2.75716 -0.69401,-5.27604 -2.08398,-7.55469 -1.38998,-2.27864 -3.24805,-3.86132 -5.57227,-4.75 -2.32422,-0.91145 -5.7194,-1.36718 -10.18555,-1.36718 l -14.62695,0 z m 85.2832,0 -19.24218,50.10738 7.04101,0 4.70899,-12.9922 -0.0781,0.014 4.19141,-11.5351 0.0469,0.0566 4.05078,-10.81641 c 1.16211,-3.16732 2.0612,-6.35742 2.69922,-9.57031 0.77474,2.71159 1.95964,6.17513 3.55469,10.39062 l 4.51563,11.9824 3.94531,10.2461 -0.0469,-0.01 4.71094,12.2324 7.55469,0 -20.50781,-50.10738 -7.14454,0 z m -154.02734,4.81836 c 3.30404,0 6.27669,0.8431 8.91992,2.52929 2.66602,1.66342 4.6836,4.02279 6.05078,7.07618 1.38998,3.03059 2.08399,6.58528 2.08399,10.66406 0,6.44859 -1.61784,11.42639 -4.85352,14.93559 -3.21289,3.5091 -7.31446,5.2636 -12.30468,5.2636 -4.8991,0 -8.97787,-1.7317 -12.23633,-5.1953 -3.23568,-3.4863 -4.85352,-8.2487 -4.85352,-14.2871 0,-7.54231 1.68621,-12.91992 5.05859,-16.13281 3.3952,-3.23567 7.44076,-4.85351 12.13477,-4.85351 z m -319.541019,16.35937 0,28.92965 37.392571,0 0,-5.914 -30.761721,0 0,-17.05471 27.718751,0 0,-5.87891 -27.718751,0 0,-0.082 -6.63085,0 z m 151.341799,0.082 0,0.002 -8.32031,0 0,28.84565 37.39258,0 0,-5.914 -30.76172,0 0,-17.0547 27.7207,0 0,-5.87891 -26.03125,0 z m 66.88281,8.94925 0,19.8984 6.35743,0 0,-19.8984 -6.35743,0 z"
       id="text4136"
       inkscape:connector-curvature="0"
       inkscape:export-xdpi="135"
       inkscape:export-ydpi="135" />
    <rect
       style="opacity:1;fill:#ffffff;fill-opacity:1;fill-rule:nonzero;stroke:none;stroke-width:5;stroke-linecap:round;stroke-linejoin:miter;stroke-miterlimit:4;stroke-dasharray:none;stroke-dashoffset:0;stroke-opacity:1;paint-order:markers stroke fill"
       id="rect4182-9"
       width="7.5446429"
       height="15.267858"
       x="320.86545"
       y="249.67508" />
    <text
       xml:space="preserve"
       style="font-style:normal;font-variant:normal;font-weight:normal;font-stretch:normal;font-size:17.5px;line-height:125%;font-family:'Bookshelf Symbol 7';-inkscape-font-specification:'Bookshelf Symbol 7, Normal';text-align:start;letter-spacing:0px;word-spacing:0px;writing-mode:lr-tb;text-anchor:start;fill:#000000;fill-opacity:1;stroke:none;stroke-width:1px;stroke-linecap:butt;stroke-linejoin:miter;stroke-opacity:1"
       x="177.78685"
       y="392.7326"
       id="text4241"
       sodipodi:linespacing="125%"><tspan
         sodipodi:role="line"
         id="tspan4243"
         x="177.78685"
         y="392.7326"></tspan></text>
    <text
       xml:space="preserve"
       style="font-style:normal;font-variant:normal;font-weight:normal;font-stretch:normal;font-size:17.5px;line-height:125%;font-family:'Bookshelf Symbol 7';-inkscape-font-specification:'Bookshelf Symbol 7, Normal';text-align:start;letter-spacing:0px;word-spacing:0px;writing-mode:lr-tb;text-anchor:start;fill:#000000;fill-opacity:1;stroke:none;stroke-width:1px;stroke-linecap:butt;stroke-linejoin:miter;stroke-opacity:1"
       x="326.42856"
       y="396.64792"
       id="text4304"
       sodipodi:linespacing="125%"><tspan
         sodipodi:role="line"
         id="tspan4306"
         x="326.42856"
         y="396.64792"></tspan></text>
  </g>
</svg>
